<?xml version="1.0" standalone="no"?>
<!DOCTYPE svg PUBLIC "-//W3C//DTD SVG 20010904//EN"
 "http://www.w3.org/TR/2001/REC-SVG-20010904/DTD/svg10.dtd">
<svg version="1.0" xmlns="http://www.w3.org/2000/svg"
 width="277.000000pt" height="277.000000pt" viewBox="0 0 277.000000 277.000000"
 preserveAspectRatio="xMidYMid meet">
<metadata>
Created by potrace 1.14, written by Peter Selinger 2001-2017
</metadata>
<g transform="translate(0.000000,277.000000) scale(0.100000,-0.100000)"
fill="#000000" stroke="none">
<path d="M1255 2757 c-58 -20 -77 -58 -81 -157 -3 -66 -4 -309 -2 -380 4 -111
-85 -347 -185 -495 -127 -189 -364 -347 -572 -381 -44 -7 -113 -18 -154 -24
-85 -14 -127 -44 -140 -100 -20 -92 54 -167 154 -155 17 2 55 7 85 10 30 3 71
10 90 15 73 18 306 27 375 15 140 -26 234 -87 271 -174 19 -45 50 -186 59
-271 4 -36 10 -74 12 -85 3 -11 6 -119 7 -240 1 -232 5 -255 52 -296 62 -53
129 -38 216 48 82 81 97 115 213 484 32 103 41 121 83 163 97 99 294 209 489
275 51 17 103 32 115 35 13 2 41 9 63 15 23 6 70 13 105 17 112 11 150 44 150
130 0 61 -24 97 -73 113 -17 5 -81 13 -142 16 -60 3 -121 8 -135 10 -14 3 -47
7 -75 11 -27 3 -92 17 -144 30 -218 55 -382 166 -487 330 -99 154 -182 422
-170 546 12 117 8 264 -10 387 -12 87 -89 137 -169 108z m81 -1077 c123 -240
301 -399 551 -493 l62 -23 -80 -42 c-205 -108 -347 -227 -399 -336 -16 -35
-30 -70 -30 -77 -1 -21 -29 -67 -30 -49 -1 8 -3 24 -6 35 -2 11 -6 38 -9 60
-3 22 -7 49 -9 60 -55 267 -129 377 -312 466 -44 21 -86 39 -92 39 -20 0 -14
8 61 83 103 101 211 247 239 324 7 18 13 31 13 30 1 -1 19 -36 41 -77z"/>
</g>
</svg>
