<svg width="23" height="14" viewBox="0 0 23 14" fill="none" xmlns="http://www.w3.org/2000/svg">
<g clip-path="url(#clip0_1_3308)">
<path fill-rule="evenodd" clip-rule="evenodd" d="M20.2148 1.89548H14.7305V0.571289H20.2152V1.89548H20.2148ZM11.0802 7.32588C11.4341 7.85865 11.6109 8.50556 11.6109 9.26505C11.6109 10.0505 11.4116 10.755 11.0059 11.3774C10.7479 11.7893 10.4275 12.1371 10.0425 12.4172C9.60897 12.7411 9.09567 12.9632 8.50558 13.0819C7.91361 13.2007 7.27288 13.2608 6.58269 13.2608H0.449219V0.0224609H7.02643C8.6843 0.0486674 9.85965 0.51556 10.5537 1.43249C10.9702 1.99489 11.1765 2.66968 11.1765 3.45404C11.1765 4.26338 10.9677 4.911 10.5471 5.40301C10.3132 5.67888 9.96763 5.92981 9.51015 6.15633C10.2031 6.40291 10.7289 6.7912 11.0802 7.32588ZM3.58984 5.2417H6.47171C7.06394 5.2417 7.54269 5.13228 7.91142 4.91354C8.27989 4.69517 8.46375 4.30697 8.46375 3.74959C8.46375 3.13379 8.2203 2.72507 7.73224 2.52835C7.31272 2.39168 6.77596 2.32129 6.12465 2.32129H3.58984V5.2417ZM8.74124 9.07516C8.74124 8.3875 8.4521 7.91209 7.87498 7.65701C7.55225 7.51204 7.09691 7.43793 6.51308 7.43262H3.58984V10.9606H6.46784C7.0591 10.9606 7.51673 10.8853 7.84699 10.7284C8.44258 10.4398 8.74124 9.89059 8.74124 9.07516ZM22.2522 6.92241C22.3185 7.35552 22.3485 7.98392 22.3363 8.80528H15.2335C15.2727 9.75828 15.6112 10.4247 16.2531 10.8061C16.6402 11.0453 17.1095 11.1621 17.6591 11.1621C18.2386 11.1621 18.7109 11.0197 19.0745 10.7269C19.2726 10.5717 19.4474 10.3527 19.5985 10.0764H22.2019C22.1337 10.6392 21.8202 11.2101 21.2569 11.7902C20.3841 12.7123 19.1601 13.1746 17.588 13.1746C16.2894 13.1746 15.1449 12.7847 14.1515 12.0077C13.1613 11.2279 12.6641 9.96327 12.6641 8.209C12.6641 6.56394 13.1105 5.3048 14.0064 4.42837C14.9056 3.55031 16.066 3.11328 17.4964 3.11328C18.3442 3.11328 19.1085 3.26061 19.7904 3.55675C20.4701 3.8532 21.0318 4.31974 21.4742 4.96098C21.8746 5.52567 22.1321 6.17859 22.2522 6.92241ZM19.6881 7.16923C19.6403 6.51027 19.414 6.01149 19.0064 5.67063C18.6022 5.32883 18.0973 5.15723 17.4948 5.15723C16.839 5.15723 16.3327 5.34066 15.9729 5.70115C15.6107 6.06093 15.3853 6.55002 15.293 7.16928H19.6881V7.16923Z" fill="#767676"/>
</g>
<defs>
<clipPath id="clip0_1_3308">
<rect width="21.8879" height="13.2383" fill="white" transform="translate(0.449219 0.0224609)"/>
</clipPath>
</defs>
</svg>
