<svg width="60" height="60" viewBox="0 0 60 60" fill="none" xmlns="http://www.w3.org/2000/svg">
<rect width="60" height="60" rx="8" fill="#FEE2E9"/>
<path d="M39.3005 22.7864L38.6089 23.0765L39.3005 22.7864ZM38.6985 23.2901C38.8587 23.6721 39.2982 23.8518 39.6802 23.6916C40.0622 23.5314 40.2419 23.0918 40.0817 22.7099L38.6985 23.2901ZM35.5286 18.2203C35.144 18.0665 34.7075 18.2535 34.5537 18.6381C34.3998 19.0227 34.5869 19.4592 34.9715 19.613L35.5286 18.2203ZM35.4451 18.9947L35.1666 19.691V19.691L35.4451 18.9947ZM20.7563 22.7864L21.4479 23.0765L20.7563 22.7864ZM19.9751 22.7099C19.8148 23.0918 19.9946 23.5314 20.3766 23.6916C20.7586 23.8518 21.1981 23.6721 21.3583 23.2901L19.9751 22.7099ZM25.0853 19.613C25.4699 19.4592 25.657 19.0227 25.5031 18.6381C25.3493 18.2535 24.9128 18.0665 24.5282 18.2203L25.0853 19.613ZM24.6117 18.9947L24.3331 18.2983L24.3331 18.2983L24.6117 18.9947ZM37.2795 26.471L36.5343 26.5556L37.2795 26.471ZM37.8012 31.0678L38.5464 30.9832L37.8012 31.0678ZM22.1988 31.0678L21.4536 30.9832L22.1988 31.0678ZM22.7206 26.471L23.4658 26.5556L22.7206 26.471ZM21.1891 33.3508L20.618 32.8646H20.618L21.1891 33.3508ZM38.8109 33.3508L38.2398 33.8369V33.8369L38.8109 33.3508ZM32.6483 21.1026H31.8983C31.8983 21.4232 32.1021 21.7083 32.4053 21.8121L32.6483 21.1026ZM27.3518 21.1026L27.5947 21.8121C27.898 21.7083 28.1018 21.4232 28.1018 21.1026H27.3518ZM34.2023 39.5965C34.3477 39.2086 34.1511 38.7764 33.7632 38.631C33.3754 38.4856 32.9431 38.6822 32.7977 39.0701L34.2023 39.5965ZM27.2023 39.0701C27.057 38.6822 26.6247 38.4856 26.2368 38.631C25.8489 38.7764 25.6524 39.2086 25.7977 39.5965L27.2023 39.0701ZM38.6089 23.0765L38.6985 23.2901L40.0817 22.7099L39.9921 22.4963L38.6089 23.0765ZM34.9715 19.613L35.1666 19.691L35.7237 18.2983L35.5286 18.2203L34.9715 19.613ZM39.9921 22.4963C39.189 20.5817 37.6513 19.0694 35.7237 18.2983L35.1666 19.691C36.7212 20.3129 37.9612 21.5325 38.6089 23.0765L39.9921 22.4963ZM20.0647 22.4963L19.9751 22.7099L21.3583 23.2901L21.4479 23.0765L20.0647 22.4963ZM24.5282 18.2203L24.3331 18.2983L24.8902 19.691L25.0853 19.613L24.5282 18.2203ZM21.4479 23.0765C22.0956 21.5325 23.3356 20.3129 24.8902 19.691L24.3331 18.2983C22.4054 19.0694 20.8677 20.5817 20.0647 22.4963L21.4479 23.0765ZM36.7401 36.25H23.26V37.75H36.7401V36.25ZM36.5343 26.5556L37.056 31.1524L38.5464 30.9832L38.0247 26.3864L36.5343 26.5556ZM22.9441 31.1524L23.4658 26.5556L21.9753 26.3865L21.4536 30.9832L22.9441 31.1524ZM21.7602 33.8369C22.4185 33.0636 22.8324 32.1359 22.9441 31.1524L21.4536 30.9832C21.3773 31.6554 21.0929 32.3067 20.618 32.8646L21.7602 33.8369ZM37.056 31.1524C37.1676 32.1359 37.5816 33.0636 38.2398 33.8369L39.382 32.8646C38.9071 32.3067 38.6227 31.6554 38.5464 30.9832L37.056 31.1524ZM23.26 36.25C22.4526 36.25 21.8695 35.8494 21.597 35.3691C21.3318 34.9017 21.337 34.3341 21.7602 33.8369L20.618 32.8646C19.7613 33.8711 19.7354 35.128 20.2924 36.1094C20.8419 37.0777 21.9343 37.75 23.26 37.75V36.25ZM36.7401 37.75C38.0658 37.75 39.1581 37.0777 39.7077 36.1094C40.2646 35.128 40.2387 33.8711 39.382 32.8646L38.2398 33.8369C38.663 34.3341 38.6683 34.9017 38.4031 35.3691C38.1305 35.8494 37.5475 36.25 36.7401 36.25V37.75ZM33.3983 21.1026V20.9816H31.8983V21.1026H33.3983ZM38.0247 26.3864C37.7053 23.572 35.616 21.3259 32.8912 20.393L32.4053 21.8121C34.6795 22.5908 36.2911 24.4128 36.5343 26.5556L38.0247 26.3864ZM28.1018 21.1026V20.9816H26.6018V21.1026H28.1018ZM23.4658 26.5556C23.709 24.4128 25.3205 22.5908 27.5947 21.8121L27.1088 20.393C24.3841 21.3259 22.2948 23.572 21.9753 26.3865L23.4658 26.5556ZM30 19.0833C31.0484 19.0833 31.8983 19.9332 31.8983 20.9816H33.3983C33.3983 19.1048 31.8768 17.5833 30 17.5833V19.0833ZM30 17.5833C28.1232 17.5833 26.6018 19.1048 26.6018 20.9816H28.1018C28.1018 19.9332 28.9516 19.0833 30 19.0833V17.5833ZM32.7977 39.0701C32.4022 40.1254 31.3154 40.9166 30 40.9166V42.4166C31.9163 42.4166 33.5789 41.26 34.2023 39.5965L32.7977 39.0701ZM30 40.9166C28.6846 40.9166 27.5978 40.1254 27.2023 39.0701L25.7977 39.5965C26.4212 41.26 28.0837 42.4166 30 42.4166V40.9166Z" fill="#F44563"/>
</svg>
