<svg width="62" height="62" viewBox="0 0 62 62" fill="none" xmlns="http://www.w3.org/2000/svg">
<path d="M31 60.8372C26.2918 60.8372 22.4195 57.2587 21.9557 52.6737C18.3849 55.5878 13.116 55.3806 9.7868 52.052C6.45759 48.7234 6.25034 43.4555 9.16503 39.8854C4.57915 39.4216 1 35.5501 1 30.8428C1 26.1354 4.57916 22.2639 9.16504 21.8001C6.25035 18.2301 6.4576 12.9621 9.78681 9.63353C13.116 6.30494 18.3849 6.09773 21.9557 9.01187C22.4195 4.42685 26.2918 0.848374 31 0.848373C35.7082 0.848373 39.5805 4.42685 40.0443 9.01187C43.6151 6.09772 48.884 6.30494 52.2132 9.63352C55.5424 12.9621 55.7497 18.2301 52.835 21.8001C57.4208 22.2639 61 26.1354 61 30.8428C61 35.5501 57.4209 39.4216 52.835 39.8854C55.7497 43.4555 55.5424 48.7234 52.2132 52.052C48.884 55.3806 43.6151 55.5878 40.0443 52.6737C39.5805 57.2587 35.7082 60.8372 31 60.8372Z" fill="#F4C44C" stroke="#12141D" stroke-linecap="round"/>
<path d="M21.0312 32.124L26.6562 37.748L40.7188 23.6881" stroke="#12141D" stroke-width="4" stroke-linecap="round" stroke-linejoin="round"/>
</svg>
