<svg width="60" height="60" viewBox="0 0 60 60" fill="none" xmlns="http://www.w3.org/2000/svg">
<rect width="60" height="60" rx="12" fill="#E9E4FF"/>
<path d="M34.6667 23H35.8333C37.122 23 38.1667 24.0446 38.1667 25.3333V30.5833M21.8333 31.1666V34.6666C21.8333 35.9553 22.878 37 24.1667 37H25.3333M31.1667 22.4166V25.3333C31.1667 26.622 30.122 27.6666 28.8333 27.6666H21.8333C20.5447 27.6666 19.5 26.622 19.5 25.3333V20.6666C19.5 19.378 20.5447 18.3333 21.8333 18.3333H23.3889C23.8938 18.3333 24.385 18.4971 24.7889 18.8L25.8778 19.6166C26.2817 19.9196 26.7729 20.0833 27.2778 20.0833H28.8333C30.122 20.0833 31.1667 21.128 31.1667 22.4166ZM40.5 36.4166V39.3333C40.5 40.622 39.4553 41.6666 38.1667 41.6666H31.1667C29.878 41.6666 28.8333 40.622 28.8333 39.3333V34.6666C28.8333 33.378 29.878 32.3333 31.1667 32.3333H32.7222C33.2271 32.3333 33.7183 32.4971 34.1222 32.8L35.2111 33.6166C35.615 33.9196 36.1062 34.0833 36.6111 34.0833H38.1667C39.4553 34.0833 40.5 35.128 40.5 36.4166Z" stroke="#7B66FF" stroke-width="1.5" stroke-linecap="round" stroke-linejoin="round"/>
</svg>
