<svg width="54" height="54" viewBox="0 0 54 54" fill="none" xmlns="http://www.w3.org/2000/svg">
<ellipse cx="27.029" cy="27.1875" rx="26.529" ry="26.5625" fill="#FDCF24"/>
<path d="M38.4526 14.4375H14.5765C14.2247 14.4375 13.8873 14.5774 13.6385 14.8265C13.3898 15.0756 13.25 15.4134 13.25 15.7656V39.6719C13.25 40.0241 13.3898 40.3619 13.6385 40.611C13.8873 40.8601 14.2247 41 14.5765 41H38.4526C38.8044 41 39.1418 40.8601 39.3905 40.611C39.6393 40.3619 39.779 40.0241 39.779 39.6719V15.7656C39.779 15.4134 39.6393 15.0756 39.3905 14.8265C39.1418 14.5774 38.8044 14.4375 38.4526 14.4375ZM21.2087 38.3438H15.9029V17.0938H21.2087V38.3438ZM37.1261 38.3438H23.8616V29.0469H37.1261V38.3438ZM37.1261 26.3906H23.8616V17.0938H37.1261V26.3906Z" fill="white"/>
</svg>
