<svg width="22" height="23" viewBox="0 0 22 23" fill="none" xmlns="http://www.w3.org/2000/svg">
<circle cx="10.855" cy="11.6783" r="10.734" fill="#649969"/>
<path d="M16.2675 7.6401C16.1872 7.55919 16.0918 7.49498 15.9866 7.45115C15.8814 7.40733 15.7686 7.38477 15.6546 7.38477C15.5407 7.38477 15.4278 7.40733 15.3227 7.45115C15.2175 7.49498 15.122 7.55919 15.0417 7.6401L8.61089 14.0796L5.90906 11.3691C5.82574 11.2887 5.72739 11.2254 5.61962 11.1829C5.51184 11.1404 5.39675 11.1196 5.28093 11.1216C5.1651 11.1236 5.05081 11.1484 4.94457 11.1946C4.83832 11.2407 4.74222 11.3074 4.66173 11.3907C4.58125 11.474 4.51797 11.5724 4.47549 11.6802C4.43302 11.7879 4.41219 11.903 4.41419 12.0188C4.4162 12.1347 4.441 12.249 4.48717 12.3552C4.53335 12.4615 4.6 12.5576 4.68331 12.638L7.99801 15.9527C8.07826 16.0336 8.17373 16.0979 8.27892 16.1417C8.38411 16.1855 8.49693 16.2081 8.61089 16.2081C8.72484 16.2081 8.83767 16.1855 8.94285 16.1417C9.04804 16.0979 9.14351 16.0336 9.22376 15.9527L16.2675 8.90901C16.3551 8.82818 16.425 8.73007 16.4729 8.62088C16.5207 8.51168 16.5454 8.39376 16.5454 8.27455C16.5454 8.15534 16.5207 8.03743 16.4729 7.92823C16.425 7.81904 16.3551 7.72093 16.2675 7.6401Z" fill="white"/>
</svg>
