<svg width="22" height="23" viewBox="0 0 22 23" fill="none" xmlns="http://www.w3.org/2000/svg">
<circle cx="10.8824" cy="11.5775" r="10.734" fill="white"/>
<path d="M16.2948 7.53927C16.2146 7.45836 16.1191 7.39415 16.0139 7.35032C15.9087 7.3065 15.7959 7.28394 15.682 7.28394C15.568 7.28394 15.4552 7.3065 15.35 7.35032C15.2448 7.39415 15.1493 7.45836 15.0691 7.53927L8.63823 13.9788L5.93641 11.2683C5.85309 11.1878 5.75473 11.1245 5.64696 11.0821C5.53918 11.0396 5.4241 11.0188 5.30827 11.0208C5.19245 11.0228 5.07815 11.0476 4.97191 11.0937C4.86567 11.1399 4.76956 11.2066 4.68908 11.2899C4.60859 11.3732 4.54531 11.4716 4.50284 11.5793C4.46036 11.6871 4.43953 11.8022 4.44154 11.918C4.44354 12.0338 4.46834 12.1481 4.51452 12.2544C4.56069 12.3606 4.62734 12.4567 4.71066 12.5372L8.02536 15.8519C8.1056 15.9328 8.20107 15.997 8.30626 16.0409C8.41145 16.0847 8.52428 16.1072 8.63823 16.1072C8.75218 16.1072 8.86501 16.0847 8.9702 16.0409C9.07539 15.997 9.17086 15.9328 9.2511 15.8519L16.2948 8.80818C16.3825 8.72735 16.4524 8.62924 16.5002 8.52005C16.548 8.41085 16.5727 8.29293 16.5727 8.17372C16.5727 8.05451 16.548 7.9366 16.5002 7.8274C16.4524 7.71821 16.3825 7.6201 16.2948 7.53927Z" fill="#055F5B"/>
</svg>
