<svg width="54" height="55" viewBox="0 0 54 55" fill="none" xmlns="http://www.w3.org/2000/svg">
<ellipse cx="27.029" cy="27.5" rx="26.529" ry="26.5625" fill="#FDCF24"/>
<path d="M36.8906 26.9688H27.5938V17.6719C27.5938 16.875 27.0625 16.3438 26.2656 16.3438C19.625 16.3438 14.3125 21.6562 14.3125 28.2969C14.3125 34.9375 19.625 40.25 26.2656 40.25C32.9062 40.25 38.2188 34.9375 38.2188 28.2969C38.2188 27.5 37.6875 26.9688 36.8906 26.9688ZM27.5938 37.4609C22.5469 38.2578 17.7656 34.6719 17.1016 29.625C16.3047 24.5781 19.8906 19.7969 24.9375 19.1328V28.2969C24.9375 29.0938 25.4688 29.625 26.2656 29.625H35.4297C34.8984 33.7422 31.7109 36.9297 27.5938 37.4609ZM31.5781 13.6875C30.7812 13.6875 30.25 14.2187 30.25 15.0156V22.9844C30.25 23.7812 30.7812 24.3125 31.5781 24.3125H39.5469C40.3438 24.3125 40.875 23.7812 40.875 22.9844C40.875 17.8047 36.7578 13.6875 31.5781 13.6875ZM32.9062 21.6562V16.4766C35.5625 17.0078 37.5547 19 38.0859 21.6562H32.9062Z" fill="white"/>
</svg>
