<svg width="20" height="18" viewBox="0 0 20 18" fill="none" xmlns="http://www.w3.org/2000/svg">
<path fill-rule="evenodd" clip-rule="evenodd" d="M19.2355 10.4901V17.1126H15.2572V10.9252C15.2572 9.37833 14.7101 8.31488 13.268 8.31488C12.174 8.31488 11.5275 9.03997 11.2291 9.71671C11.1296 9.9584 11.0799 10.2968 11.0799 10.6351V17.1126H7.10156C7.10156 17.1126 7.15129 6.62302 7.10156 5.55957H11.0799V7.20309C11.0799 7.20309 11.0799 7.25142 11.0302 7.25142H11.0799V7.20309C11.6269 6.42967 12.5221 5.26953 14.6604 5.26953C17.2463 5.26953 19.2355 6.9614 19.2355 10.4901ZM3.02298 0C1.68028 0 0.785156 0.8701 0.785156 1.98189C0.785156 3.09368 1.63056 3.96379 2.97324 3.96379H3.02298C4.4154 3.96379 5.2608 3.09369 5.2608 1.98189C5.21107 0.8701 4.36567 0 3.02298 0ZM0.984375 17.1126H4.913V5.55957H0.984375V17.1126Z" fill="#1E1E1E"/>
</svg>
