<svg width="24" height="25" viewBox="0 0 24 25" fill="none" xmlns="http://www.w3.org/2000/svg">
<g clip-path="url(#clip0_1_3272)">
<path d="M15.0514 5.4707C16.0281 5.66127 16.9258 6.13896 17.6295 6.84264C18.3331 7.54632 18.8108 8.44397 19.0014 9.4207L15.0514 5.4707ZM15.0514 1.4707C17.0807 1.69614 18.973 2.60488 20.4176 4.04771C21.8623 5.49054 22.7734 7.38171 23.0014 9.4107L15.0514 1.4707ZM22.0014 17.3907V20.3907C22.0025 20.6692 21.9455 20.9449 21.8339 21.2001C21.7223 21.4552 21.5587 21.6843 21.3535 21.8726C21.1483 22.0608 20.906 22.2042 20.6421 22.2934C20.3783 22.3826 20.0988 22.4158 19.8214 22.3907C16.7442 22.0563 13.7884 21.0048 11.1914 19.3207C8.77523 17.7854 6.72673 15.7369 5.1914 13.3207C3.50138 10.7119 2.44964 7.7417 2.1214 4.6507C2.09641 4.37417 2.12927 4.09546 2.2179 3.83233C2.30652 3.56919 2.44897 3.32739 2.63616 3.12232C2.82336 2.91726 3.0512 2.75341 3.30519 2.64123C3.55917 2.52904 3.83374 2.47096 4.1114 2.4707H7.1114C7.5967 2.46593 8.06719 2.63778 8.43516 2.95424C8.80313 3.27069 9.04348 3.71015 9.1114 4.1907C9.23802 5.15077 9.47285 6.09343 9.8114 7.0007C9.94594 7.35863 9.97506 7.74762 9.8953 8.12158C9.81555 8.49555 9.63026 8.83881 9.3614 9.1107L8.0914 10.3807C9.51495 12.8842 11.5879 14.9571 14.0914 16.3807L15.3614 15.1107C15.6333 14.8418 15.9766 14.6566 16.3505 14.5768C16.7245 14.497 17.1135 14.5262 17.4714 14.6607C18.3787 14.9993 19.3213 15.2341 20.2814 15.3607C20.7672 15.4292 21.2108 15.6739 21.5279 16.0482C21.8451 16.4225 22.0136 16.9003 22.0014 17.3907Z" stroke="#649969" stroke-width="2" stroke-linecap="round" stroke-linejoin="round"/>
</g>
<defs>
<clipPath id="clip0_1_3272">
<rect width="24" height="24" fill="white" transform="translate(0 0.470703)"/>
</clipPath>
</defs>
</svg>
