<svg width="19" height="16" viewBox="0 0 19 16" fill="none" xmlns="http://www.w3.org/2000/svg">
<path fill-rule="evenodd" clip-rule="evenodd" d="M18.4496 2.6998C17.755 2.99518 17.0604 3.20617 16.2791 3.29055C17.0604 2.82639 17.6682 2.10904 17.9287 1.2651C17.1907 1.68707 16.3659 1.98245 15.5411 2.15124C14.8465 1.43389 13.8481 0.969727 12.7628 0.969727C10.6791 0.969727 8.98604 2.6154 8.98604 4.64086C8.98604 4.93624 9.02945 5.23161 9.07286 5.4848C5.90387 5.31601 3.12558 3.88131 1.25891 1.64488C0.911628 2.19344 0.737985 2.82639 0.737985 3.50154C0.737985 4.76745 1.38915 5.90677 2.43101 6.58191C1.82326 6.58191 1.2155 6.41313 0.694574 6.11775V6.15995C0.694574 7.93222 1.9969 9.4513 3.73333 9.78887C3.42946 9.87327 3.08217 9.91547 2.73488 9.91547C2.47442 9.91547 2.25736 9.87327 2.04031 9.83108C2.51783 11.308 3.90698 12.3629 5.6 12.4051C4.29768 13.3756 2.69147 13.9664 0.911628 13.9664C0.607754 13.9664 0.30388 13.9664 0 13.9242C1.69302 14.9791 3.64651 15.5699 5.81705 15.5699C12.8062 15.5699 16.5829 9.95766 16.5829 5.10502C16.5829 4.93624 16.5829 4.76745 16.5829 4.64086C17.3209 4.0923 17.9721 3.41714 18.4496 2.6998Z" fill="#1E1E1E"/>
</svg>
