<svg width="15" height="16" viewBox="0 0 15 16" fill="none" xmlns="http://www.w3.org/2000/svg">
<path d="M13.95 8.00005C13.95 11.5623 11.0622 14.45 7.5 14.45C3.93777 14.45 1.05 11.5623 1.05 8.00005C1.05 4.43781 3.93777 1.55005 7.5 1.55005C11.0622 1.55005 13.95 4.43781 13.95 8.00005ZM7.51526 4.82717C7.00895 4.48963 6.35795 4.45816 5.82144 4.74529C5.28493 5.03242 4.95 5.59154 4.95 6.20005V9.80005C4.95 10.4086 5.28493 10.9677 5.82144 11.2548C6.35795 11.5419 7.00894 11.5105 7.51526 11.1729L10.2153 9.37293C10.6743 9.06692 10.95 8.55173 10.95 8.00005C10.95 7.44837 10.6743 6.93319 10.2153 6.62717L7.51526 4.82717Z" fill="#12141D" stroke="#12141D" stroke-width="1.5"/>
</svg>
