<svg width="190" height="200" viewBox="0 0 190 200" fill="none" xmlns="http://www.w3.org/2000/svg">
<path d="M157.583 146.299C180.697 115.127 161.187 71.3704 121.725 70.59C119.747 70.4713 117.547 70.7363 115.65 70.9203C116.771 96.8963 105.321 125.592 84.3987 133.469C65.5145 140.475 54.4923 122.343 61.9011 106.408C70.7797 87.4848 86.9283 71.4794 106.963 65.1379C104.865 48.8314 96.4914 34.5306 78.7844 30.192C48.9437 22.941 18.9429 51.4169 15.4645 79.5985C15.2864 82.5658 10.7246 82.4905 10.9028 79.5232C11.4837 41.7372 55.6501 10.4388 91.1128 26.5642C104.826 32.9461 112.513 47.1065 114.914 63.3319C136.063 59.9358 156.705 71.5979 168.171 88.9624C181.355 109.111 176.196 132.228 162.43 149.866C160.274 152.715 155.729 149.066 157.583 146.299ZM78.277 94.8835C72.9159 101.51 67.0523 109.894 66.5179 118.796C65.9024 127.395 77.5285 127.2 82.4522 126.204C88.5867 124.885 92.8993 119.188 96.0824 114.118C103.275 103.432 107.798 87.6222 107.699 72.7263C96.1383 76.7972 86.1782 85.6296 78.277 94.8835Z" fill="#649969"/>
<path d="M150.925 166.249C148.655 157.774 146.908 148.835 146.837 140.095C146.853 136.523 151.799 136.819 152.085 140.311C152.659 147.294 154.827 154.174 156.914 160.752C160.767 159.395 164.923 157.957 168.696 156.298C171.56 154.881 175.532 151.546 179.046 152.551C180.803 153.053 181.208 154.567 181.008 156.242C180.468 160.28 174.112 161.983 170.945 163.48C165.739 165.848 160.676 167.529 155.227 168.989C153.412 169.475 151.412 168.065 150.925 166.249Z" fill="#649969"/>
</svg>
