<svg width="166" height="152" viewBox="0 0 166 152" fill="none" xmlns="http://www.w3.org/2000/svg">
<path d="M21.3068 124.53C45.4344 154.925 92.7497 147.404 103.717 109.49C104.343 107.609 104.657 105.416 104.97 103.536C79.5891 97.8957 54.8348 79.4083 52.6414 57.1607C50.7613 37.1066 71.1288 31.153 84.6027 42.4335C100.583 55.9073 111.864 75.6482 112.804 96.6418C129.098 98.8353 145.078 94.4484 153.852 78.4678C168.579 51.5205 148.839 15.1718 122.518 4.51806C119.697 3.57802 120.951 -0.808822 123.771 0.131216C160.119 10.4722 178.92 61.2342 154.166 91.3149C144.452 102.909 128.784 106.669 112.49 104.789C110.297 126.096 93.6897 143.017 73.9494 149.597C51.0752 157.118 30.081 146.151 16.6071 128.29C14.4131 125.47 19.1139 122.023 21.3068 124.53ZM91.4963 61.2342C86.4828 54.3406 79.9025 46.507 71.4421 43.6868C63.2957 40.8667 60.475 52.1472 60.1622 57.1607C59.8489 63.4277 64.2357 69.0679 68.3092 73.4547C76.769 83.168 90.8696 91.6288 105.284 95.3885C104.343 83.168 98.3899 71.2613 91.4963 61.2342Z" fill="#649969"/>
<path d="M3.75989 112.937C12.5336 112.937 21.6206 113.563 30.081 115.757C33.5273 116.697 31.9611 121.397 28.5137 120.77C21.6201 119.517 14.4132 119.83 7.51954 120.143C7.83289 124.216 8.14623 128.603 8.77292 132.677C9.39962 135.81 11.593 140.51 9.71296 143.644C8.77292 145.211 7.2062 145.211 5.63947 144.584C1.87931 143.017 1.87932 136.437 1.25262 132.99C0.312584 127.349 -0.000259399 122.023 -0.000259399 116.382C-0.000259399 114.503 1.87981 112.937 3.75989 112.937Z" fill="#649969"/>
</svg>
