<svg width="153" height="160" viewBox="0 0 153 160" fill="none" xmlns="http://www.w3.org/2000/svg">
<path opacity="0.2" d="M84.108 33.6597C86.4247 32.573 88.546 31.3924 90.7974 30.5446C101.866 26.3926 113.157 29.8334 118.488 38.9297C121.468 44.0242 121.806 49.5034 120.573 55.1353C118.941 62.613 115.486 69.2663 111.177 75.5292C110.771 76.1229 110.387 76.7238 109.786 77.6433C111.024 77.9396 111.986 78.1346 112.927 78.4093C118.797 80.1513 124.905 81.3648 130.485 83.7729C152.21 93.1593 158.534 116.124 145.042 135.593C139.038 144.259 131.037 150.393 121.278 154.292C111.454 158.211 101.24 159.888 90.7017 159.559C76.5294 159.116 62.5678 156.972 48.715 154.039C44.6909 153.186 42.5709 151.124 42.2174 148.091C41.8929 145.29 43.8775 142.018 46.8675 140.417C49.5824 138.976 51.9779 140.01 52.4689 143.049C52.6927 144.461 53.0977 145.156 54.5452 145.43C81.3753 150.609 106.378 147.269 128.345 129.671C129.721 128.571 130.967 127.311 132.256 126.094C143.914 115.058 137.63 99.2743 127.491 94.4505C123.851 92.7221 119.856 91.4932 115.89 90.7565C111.25 89.897 106.466 89.5298 101.747 89.5462C98.4967 89.5547 95.2464 90.5767 92.0034 91.2005C91.0044 91.3891 90.056 91.8599 89.0571 92.0341C84.7428 92.8031 80.9146 90.597 79.8088 86.7539C78.7318 83.0411 80.637 79.0521 84.6476 77.5304C95.3473 73.4872 101.496 65.1245 106.104 55.2931C106.987 53.3963 107.538 51.2246 107.713 49.14C108.171 43.7473 103.975 39.739 98.7552 41.0947C95.5701 41.9211 92.4207 43.7971 89.8647 45.9334C86.0272 49.1343 82.7828 53.0442 79.1623 56.5201C76.57 59.0111 73.1679 59.4467 70.4252 57.9495C67.6101 56.4089 66.1492 53.3984 66.6211 49.9022C66.7663 48.8019 67.0997 47.7305 67.3825 46.6519C67.9334 44.5815 68.8462 42.5545 69.0136 40.4625C69.4283 35.2147 70.1181 29.8653 69.5845 24.6829C68.7482 16.4896 63.2345 12.062 55.0192 11.841C37.5245 11.3776 22.9067 20.9163 16.3568 37.147C5.37982 64.3745 13.896 90.255 32.7595 106.28C42.6291 114.672 54.1305 115.08 65.916 110.993C71.0486 109.218 72.5845 105.873 71.6746 100.43C71.6458 100.242 71.588 100.068 71.5736 99.8802C71.379 97.8173 70.41 95.4002 72.9656 94.1903C75.3185 93.0819 77.3012 94.413 78.9798 95.9757C82.4095 99.1592 83.6239 103.096 82.5291 107.635C80.9775 114.092 77.2188 119.009 71.1449 121.61C59.2794 126.688 47.0243 128.582 34.4895 124.172C27.7444 121.801 22.4117 117.221 17.861 111.859C2.3062 93.5386 -2.98368 72.5788 2.47621 49.1175C5.14454 37.651 8.89122 26.4809 16.4155 17.1622C28.1546 2.63034 43.8344 -1.84921 61.6464 1.36459C73.5018 3.50231 80.2156 11.6498 82.7515 23.2227C83.4885 26.552 83.6535 30.0046 84.108 33.6597Z" fill="#162D3C"/>
</svg>
