<svg width="68" height="65" viewBox="0 0 68 65" fill="none" xmlns="http://www.w3.org/2000/svg">
<path fill-rule="evenodd" clip-rule="evenodd" d="M6.91162 34.036C8.97262 25.656 8.83765 17.586 9.08465 9.08603C9.13265 7.42603 7.82864 6.04594 6.17364 5.99594C4.51764 5.94594 3.13561 7.25598 3.08661 8.91598C2.85261 16.976 3.04163 24.6459 1.08563 32.6059C0.689631 34.2159 1.67465 35.8459 3.28265 36.2359C4.88965 36.6359 6.51662 35.646 6.91162 34.036Z" fill="#649969"/>
<path fill-rule="evenodd" clip-rule="evenodd" d="M24.4234 50.2754C38.4054 37.4954 51.5794 21.0554 60.7874 4.45542C61.5904 3.00542 61.0674 1.17534 59.6194 0.375343C58.1714 -0.424656 56.3434 0.0953865 55.5404 1.54539C46.6364 17.5954 33.8954 33.4954 20.3754 45.8454C19.1534 46.9654 19.0684 48.8654 20.1854 50.0854C21.3024 51.3054 23.2014 51.3954 24.4234 50.2754Z" fill="#649969"/>
<path fill-rule="evenodd" clip-rule="evenodd" d="M27.9647 64.2355C40.7527 66.3455 53.9337 62.7456 65.5617 57.6556C67.0787 56.9856 67.7707 55.2156 67.1077 53.7056C66.4437 52.1856 64.6727 51.4956 63.1557 52.1556C52.5657 56.7956 40.5887 60.2356 28.9417 58.3156C27.3077 58.0456 25.7627 59.1556 25.4937 60.7856C25.2237 62.4156 26.3317 63.9655 27.9647 64.2355Z" fill="#649969"/>
</svg>
