<svg width="187" height="183" viewBox="0 0 187 183" fill="none" xmlns="http://www.w3.org/2000/svg">
<path d="M120.943 150.388C124.601 152.543 127.734 154.029 130.414 156.129C131.836 157.247 133.602 159.289 133.329 161.051C133.044 162.885 130.701 165.511 128.897 166.651C123.623 169.992 118.154 172.937 112.721 175.665C111.547 176.255 109.528 176.306 108.719 175.029C107.691 174.022 110.254 171.126 111.459 170.275C116.074 167.066 120.889 164.295 126.035 161.119C123.468 159.607 121.298 158.408 119.175 157.077C113.51 153.498 113.625 148.68 119.804 142.868C128.541 134.637 137.429 126.616 146.261 118.483C147.326 117.508 148.344 116.506 149.381 115.474C151.108 114.049 150.747 113.675 149.165 114.386C146.128 115.801 143.086 117.172 140.049 118.587C134.653 121.096 129.263 123.647 123.862 126.113C122.643 126.676 121.306 126.97 120.134 127.401C118.072 128.148 116.468 126.923 115.768 125.669C115.175 124.599 114.851 122.966 116.582 120.341C120.251 114.893 124.221 109.662 128.196 104.474C137.146 92.7641 146.147 81.1245 154.914 68.9466C150.809 71.6547 146.658 74.336 142.604 77.1139C133.635 83.245 124.75 89.5456 115.744 95.5339C112.659 97.6014 109.041 100.677 106.264 97.5986C103.657 94.7003 106.016 90.6434 107.557 87.1454C112.437 76.1621 117.517 65.2562 122.506 54.2967C123.005 53.1891 123.374 52.0444 124.259 49.7624C118.349 54.1308 113.119 57.6578 108.208 61.7336C97.8658 70.2997 87.6458 79.1781 77.3876 87.9137C70.5563 93.742 67.2702 92.5667 67.3008 83.8929C67.3232 73.0513 67.6903 62.0924 67.8737 51.1855C67.9039 49.1605 67.7329 47.2172 67.6052 44.0578C66.253 46.145 65.4159 47.2539 64.8009 48.4536C57.7021 62.2152 50.626 75.9902 43.5324 89.795C41.6696 93.4238 40.1924 97.8005 36.2148 98.9415C32.0536 100.135 30.8478 96.2598 29.16 93.4628C27.4163 90.5528 25.7882 87.5507 23.3274 84.819C22.9249 88.3069 22.5398 91.765 22.1373 95.2529C21.8054 98.1015 21.6624 100.941 21.0962 103.772C20.901 104.778 19.5403 106.62 18.9913 106.617C18.0015 106.635 16.9995 106.725 16.456 104.843C16.2138 104.059 16.2045 102.932 16.3141 101.915C16.953 94.9619 17.4258 88.0307 18.4826 81.0431C18.8049 78.9899 20.5062 75.9468 22.0565 74.9778C23.3531 74.1796 25.9662 75.1986 26.9859 76.4804C29.6123 79.7102 31.6819 83.5733 33.9721 87.1658C34.7245 88.3301 35.4418 89.5539 36.4629 91.197C38.2414 87.919 39.687 85.206 41.1728 82.4765C48.8667 68.2244 56.5606 53.9723 64.2771 39.7336C64.815 38.7688 65.4211 37.8441 66.0777 36.9894C68.3489 34.1219 71.3972 33.675 72.5587 36.4822C73.626 39.0338 74.3501 42.064 74.3817 45.1267C74.4794 56.4396 74.2324 67.8699 74.1062 79.2511C74.0857 80.4807 74.1228 81.6641 74.1367 83.3546C81.5909 77.0924 88.5572 70.9832 95.7013 65.2992C104.231 58.5094 112.879 51.9887 121.548 45.4814C124.18 43.5075 127.162 40.5777 129.835 42.7935C132.507 45.0094 131.195 49.0026 129.805 52.349C125.422 62.9042 120.713 73.388 116.154 83.8792C115.407 85.5621 114.642 87.2747 114.329 89.5732C120.416 85.63 126.504 81.6869 132.587 77.7006C141.529 71.8743 150.443 65.9915 159.39 60.2083C161.523 58.8216 163.969 57.0588 165.67 59.2625C167.399 61.5228 166.031 64.3622 164.315 66.7556C157.305 76.5237 150.254 86.3082 143.057 95.9262C137.237 103.673 131.181 111.199 125.375 119.754C129.664 117.876 133.91 115.811 138.226 114.149C143.668 112.028 149.149 110.05 154.613 108.464C156.284 107.966 159.121 108.396 159.377 109.468C159.736 111.041 158.725 114.211 157.421 115.645C152.61 120.901 147.488 125.854 142.35 130.678C135.655 137.107 128.815 143.21 120.943 150.388Z" fill="#649969"/>
</svg>
