<svg width="103" height="104" viewBox="0 0 103 104" fill="none" xmlns="http://www.w3.org/2000/svg">
<path fill-rule="evenodd" clip-rule="evenodd" d="M45.9289 30.7526C45.7983 29.632 45.7131 28.5263 45.678 27.4231C45.6246 25.7682 45.7941 24.1121 45.8294 22.4618C45.8437 21.7616 45.8529 19.9347 45.9 19.6743C46.3222 17.4053 48.1839 17.1497 48.7264 17.1147C48.9892 17.0906 51.6835 16.9276 52.1101 19.9281C52.6341 23.5971 52.675 27.2663 52.2416 30.8364C52.6719 33.9123 53.5186 36.9968 54.7007 39.8106C59.4049 51.0019 69.3753 52.5737 80.2413 53.0272C81.9129 53.0873 83.2331 54.4687 83.2359 56.1335C83.2381 57.8108 81.921 59.1956 80.2505 59.2607C74.1497 59.5381 63.1306 63.8582 59.1484 68.7369C58.3154 69.7583 57.7319 72.2945 57.0048 74.7732C55.991 78.2136 54.8205 81.6084 53.6319 82.9997C53.4532 83.2159 51.3025 85.4094 50.6787 85.7155C49.1798 86.4402 48.0362 85.9187 47.3949 85.4605C46.7536 85.0023 46.046 84.1277 45.817 82.7267C45.5774 81.2626 45.9934 78.3049 45.9771 77.6657C45.9175 75.3472 45.6865 70.7921 44.9424 66.8491C44.5412 64.726 44.0979 62.7634 43.2506 61.7565C40.1136 58.0295 34.7813 58.2836 30.2834 58.6427C29.7672 58.679 29.2503 58.7278 28.7352 58.7642C26.889 59.2083 24.9374 59.5093 22.8842 59.6425C19.7835 59.8476 19.421 56.9879 19.4031 56.7992C19.3667 56.3844 19.2613 54.2513 21.6278 53.5207C21.8857 53.4463 23.7767 53.1295 24.5053 53.0039C25.5205 52.8304 26.5443 52.7073 27.5712 52.5969C38.2605 49.8622 44.4436 40.9652 45.9289 30.7526ZM48.9624 42.2844C52.5163 50.7012 58.3424 54.9781 65.3966 57.1398L65.3954 57.1397C60.8147 59.2469 56.6074 61.9614 54.307 64.7855C53.4339 65.855 52.5711 68.0514 51.7679 70.5262C51.521 68.1731 51.1533 65.6636 50.6085 63.508C49.9891 61.0483 49.0915 58.9876 48.0365 57.7323C45.9994 55.3131 43.3609 53.8895 40.4859 53.1047C44.1234 50.1985 46.9584 46.4879 48.9624 42.2844Z" fill="#F4C44C"/>
</svg>
